<?xml version="1.0" standalone="no"?>
<!DOCTYPE svg PUBLIC "-//W3C//DTD SVG 20010904//EN"
 "http://www.w3.org/TR/2001/REC-SVG-20010904/DTD/svg10.dtd">
<svg version="1.0" xmlns="http://www.w3.org/2000/svg"
 width="512.000000pt" height="512.000000pt" viewBox="0 0 512.000000 512.000000"
 preserveAspectRatio="xMidYMid meet">
<metadata>
Created by potrace 1.14, written by Peter Selinger 2001-2017
</metadata>
<g transform="translate(0.000000,512.000000) scale(0.100000,-0.100000)"
fill="#000000" stroke="none">
<path d="M1480 4903 c-106 -21 -204 -76 -286 -158 -108 -108 -169 -231 -209
-417 -17 -80 -12 -295 9 -393 91 -418 414 -739 755 -750 331 -10 592 251 639
639 32 257 -46 547 -206 763 -54 73 -163 180 -211 207 -11 6 -39 22 -63 36
-127 75 -288 102 -428 73z"/>
<path d="M3459 4916 c-2 -2 -21 -7 -42 -10 -220 -35 -450 -224 -576 -474 -34
-68 -86 -216 -95 -272 -3 -19 -8 -48 -12 -65 -3 -16 -7 -69 -8 -116 -18 -569
409 -936 866 -743 94 39 168 91 258 183 147 147 242 334 283 556 21 113 15
315 -12 420 -57 214 -186 384 -352 463 -46 22 -102 43 -124 47 -45 9 -181 16
-186 11z"/>
<path d="M526 3409 c-257 -36 -446 -238 -512 -544 -12 -60 -11 -261 3 -340 61
-355 309 -675 603 -780 102 -36 240 -49 335 -31 183 35 353 181 433 372 118
283 63 672 -136 954 -186 263 -465 405 -726 369z"/>
<path d="M4425 3410 c-69 -10 -194 -54 -258 -91 -218 -128 -392 -366 -463
-634 -38 -143 -44 -324 -15 -454 11 -51 27 -107 36 -124 8 -16 15 -34 15 -38
0 -4 16 -34 35 -67 213 -363 670 -397 1011 -75 159 150 281 379 319 598 11 67
14 256 4 320 -14 83 -60 214 -100 282 -122 204 -351 314 -584 283z"/>
<path d="M2384 3133 c-113 -23 -258 -89 -338 -153 -152 -121 -280 -335 -327
-545 -6 -27 -12 -57 -14 -65 -2 -8 -13 -51 -24 -95 -28 -116 -74 -235 -127
-333 -79 -146 -127 -204 -342 -416 -224 -219 -283 -290 -340 -408 -66 -137
-88 -233 -86 -378 3 -264 168 -441 480 -516 84 -20 288 -24 359 -6 28 7 60 15
73 17 12 3 32 7 45 10 59 13 83 16 190 30 21 2 72 7 114 11 42 3 86 8 97 10
117 23 645 22 836 -1 19 -2 62 -7 95 -10 106 -9 170 -16 185 -20 8 -2 35 -7
60 -10 25 -4 74 -13 110 -22 108 -25 121 -27 235 -27 315 1 566 146 646 375
41 115 29 311 -27 454 -39 98 -112 220 -164 276 -8 8 -36 38 -61 65 -26 27
-102 103 -169 169 -149 146 -212 218 -273 312 -88 133 -142 271 -196 501 -63
265 -135 414 -265 547 -163 167 -357 245 -606 242 -58 0 -133 -7 -166 -14z"/>
</g>
</svg>
